# xmcd
#
# Track frame offsets:
#	150
#	18740
#	39625
#	60115
#	82172
#	92030
#	114390
#	150315
#
# Disc length: 2129 seconds
#
# Revision: 1
# Processed by: cddbd v1.5.1PL0 Copyright (c) Steve Scherf et al.
# Submitted via: CDex 1.50Beta5
#
DISCID=57084f08
DTITLE=鈴木博文 - 孔雀
DYEAR=1995
DGENRE=Rock
TTITLE0=珍しい人
TTITLE1=今日も冷たい雨が
TTITLE2=何気ない愛
TTITLE3=陽の当たる夏の庭
TTITLE4=孔雀
TTITLE5=心乱れて
TTITLE6=うぬぼれた男
TTITLE7=ハドソン
EXTD=
EXTT0=
EXTT1=
EXTT2=
EXTT3=
EXTT4=
EXTT5=
EXTT6=
EXTT7=
PLAYORDER=
